<?xml version="1.0" encoding="utf-8"?>
<!-- Generator: Adobe Illustrator 23.0.6, SVG Export Plug-In . SVG Version: 6.00 Build 0)  -->
<svg version="1.1" id="레이어_1" xmlns="http://www.w3.org/2000/svg" xmlns:xlink="http://www.w3.org/1999/xlink" x="0px"
	 y="0px" viewBox="0 0 62 89.9" style="enable-background:new 0 0 62 89.9;" xml:space="preserve">
<g>
	<path d="M57,10.6V6c0-3.3-2.7-6-6-6H11C7.7,0,5,2.7,5,6v4.6c-2.9,1.2-5,4.1-5,7.4v2c0,3,2.3,5.5,5.2,5.9l5.5,58.6
		c0.3,3.1,2.9,5.4,6,5.4h28.7c3.1,0,5.7-2.3,6-5.4l5.5-58.6C59.7,25.5,62,23,62,20v-2C62,14.6,59.9,11.8,57,10.6z M9,6
		c0-1.1,0.9-2,2-2h40c1.1,0,2,0.9,2,2v4H9V6z M47.3,84.2c-0.1,1-0.9,1.8-2,1.8H16.6c-1,0-1.9-0.8-2-1.8l-1-10.2h34.6L47.3,84.2z
		 M48.7,70H13.3l-2.8-30h41L48.7,70z M51.9,36H10.1L9.2,26h43.6L51.9,36z M58,20c0,1.1-0.9,2-2,2H6c-1.1,0-2-0.9-2-2v-2
		c0-2.2,1.8-4,4-4h46c2.2,0,4,1.8,4,4V20z"/>
	<path d="M23.6,58c0.5,0.7,1.3,1.5,2.1,2.3c1.3,1.2,2.7,2.4,4.2,3.4c0.3,0.2,0.7,0.3,1.1,0.3s0.8-0.1,1.1-0.3c1.5-1,2.9-2.2,4.2-3.4
		c1-1,1.7-1.8,2.1-2.3c0.9-1.2,2-2.7,2.5-4.8c0.3-1.4,0.1-2.5,0-3s-0.5-1.8-1.8-2.9c-1.2-1-2.5-1.2-2.9-1.2
		c-1.6-0.2-3.2,0.3-4.6,1.3c-0.2,0.1-0.3,0.2-0.5,0.4c-0.1-0.1-0.3-0.2-0.5-0.4c-1.4-1.1-3-1.5-4.6-1.3c-0.4,0-1.7,0.2-2.9,1.2
		c-1.3,1.1-1.7,2.5-1.8,2.9c-0.2,0.6-0.3,1.6,0,3C21.6,55.3,22.7,56.8,23.6,58z M25,51.2c0-0.2,0.2-0.6,0.5-0.9
		c0.3-0.2,0.6-0.3,0.8-0.3c0.1,0,0.2,0,0.2,0c0.5,0,1.1,0.2,1.6,0.6c0.6,0.4,0.8,0.9,1,1.3c0.3,0.8,1,1.2,1.8,1.2s1.5-0.5,1.8-1.2
		c0.2-0.4,0.4-0.9,1-1.3c0.6-0.4,1.2-0.6,1.8-0.6c0.2,0,0.5,0.1,0.8,0.3c0.3,0.3,0.4,0.7,0.5,0.9c0,0,0.1,0.4,0,1.2
		c-0.2,1.1-0.8,1.9-1.7,3.1c-0.2,0.3-0.8,1-1.7,1.9c-0.8,0.8-1.6,1.5-2.5,2.2c-0.9-0.7-1.7-1.4-2.5-2.2c-0.9-0.8-1.4-1.5-1.7-1.9
		c-0.9-1.2-1.5-2-1.7-3.1C24.9,51.7,25,51.3,25,51.2z"/>
</g>
</svg>
